<?xml version="1.0" encoding="utf-8"?>
<!-- Generator: Adobe Illustrator 25.4.1, SVG Export Plug-In . SVG Version: 6.00 Build 0)  -->
<svg version="1.1" id="Ebene_1" xmlns="http://www.w3.org/2000/svg" xmlns:xlink="http://www.w3.org/1999/xlink" x="0px" y="0px"
	 viewBox="0 0 200 200" style="enable-background:new 0 0 200 200;" xml:space="preserve">
<style type="text/css">
	.st0{fill-rule:evenodd;clip-rule:evenodd;fill:#4D9B9A;}
	.st1{fill-rule:evenodd;clip-rule:evenodd;fill:#563727;}
	.st2{fill-rule:evenodd;clip-rule:evenodd;fill:#704E3A;}
	.st3{fill-rule:evenodd;clip-rule:evenodd;fill:#040405;}
	.st4{fill-rule:evenodd;clip-rule:evenodd;fill:#FFFFFF;}
	.st5{fill-rule:evenodd;clip-rule:evenodd;fill:#DFC0AF;}
	.st6{opacity:0.15;fill-rule:evenodd;clip-rule:evenodd;fill:#040405;}
</style>
<g>
	
		<ellipse transform="matrix(0.9836 -0.1805 0.1805 0.9836 -16.4681 19.6988)" class="st0" cx="100.03" cy="100.36" rx="98.81" ry="98.8"/>
	<path class="st1" d="M129.27,109.29l14.62,47.51l8.43,27.4c-15.17,9.48-33.08,14.96-52.29,14.96s-37.12-5.48-52.29-14.96l8.43-27.4
		l14.62-47.51h29.24H129.27z"/>
	<path class="st2" d="M68.07,23.04c8.89-0.83,29.1,65.34,5.27,71.79C49.5,101.28,59.18,23.88,68.07,23.04z"/>
	<path class="st1" d="M66.26,26.5c5.85-1.46,15.75,42.68,4.8,60.72c-3.01,4.96,0.07,8.08-3.83,9.05
		C52.88,99.86,58.24,28.5,66.26,26.5z"/>
	<path class="st2" d="M131.48,23.04c-8.89-0.83-29.1,65.34-5.27,71.79C150.04,101.28,140.37,23.88,131.48,23.04z"/>
	<path class="st1" d="M133.28,26.5c-5.85-1.46-15.75,42.68-4.8,60.72c3.01,4.96-0.06,8.08,3.83,9.05
		C146.66,99.86,141.3,28.5,133.28,26.5z"/>
	<polygon class="st2" points="122.83,61.7 145.64,96.82 117.13,188.1 82.93,188.1 54.42,96.82 77.23,61.7 	"/>
	<path class="st3" d="M75.99,100.67c2.75,0,4.98,2.23,4.98,4.98c0,2.75-2.23,4.98-4.98,4.98c-2.75,0-4.98-2.23-4.98-4.98
		C71.01,102.9,73.24,100.67,75.99,100.67z"/>
	<path class="st4" d="M78.14,101.59c0.98,0,1.78,0.8,1.78,1.78c0,0.98-0.8,1.78-1.78,1.78c-0.98,0-1.78-0.79-1.78-1.78
		C76.36,102.39,77.16,101.59,78.14,101.59z"/>
	<path class="st3" d="M124.07,100.67c2.75,0,4.98,2.23,4.98,4.98c0,2.75-2.23,4.98-4.98,4.98c-2.75,0-4.98-2.23-4.98-4.98
		C119.08,102.9,121.32,100.67,124.07,100.67z"/>
	<path class="st4" d="M126.21,101.59c0.98,0,1.78,0.8,1.78,1.78c0,0.98-0.8,1.78-1.78,1.78c-0.98,0-1.78-0.79-1.78-1.78
		C124.44,102.39,125.23,101.59,126.21,101.59z"/>
	<polygon class="st5" points="124.43,164.74 117.13,188.1 82.93,188.1 75.63,164.74 86.77,147.57 113.29,147.57 	"/>
	<path class="st2" d="M83.24,167.73c1.36-0.25,3.13,3.11,3.95,7.5c0.82,4.4,0.37,8.16-0.99,8.42c-1.36,0.25-3.13-3.1-3.95-7.5
		C81.43,171.75,81.88,167.98,83.24,167.73z"/>
	<path class="st2" d="M116.82,167.73c-1.36-0.25-3.13,3.1-3.95,7.5c-0.82,4.4-0.37,8.16,0.99,8.42c1.36,0.25,3.13-3.1,3.95-7.5
		C118.63,171.75,118.18,167.98,116.82,167.73z"/>
	<path class="st5" d="M108.88,83.86l8.85,36.55l-11.06,67.69H93.4l-11.06-67.69l8.85-36.55h0.08c5.41,7.83,8.19,18.14,4.75,31.72
		c7.16-5.99,12.73-19.52,12.82-31.72H108.88z"/>
	<path class="st6" d="M100.03,1.55c54.57,0,98.8,44.24,98.8,98.8s-44.24,98.8-98.8,98.8V1.55z"/>
</g>
</svg>
